<svg id="Layer_1" data-name="Layer 1" xmlns="http://www.w3.org/2000/svg" viewBox="0 0 31.98 30.25"><defs><style>.cls-1{fill:#582f80;}.cls-2{opacity:0;}.cls-3{fill:#d8d3d2;}.cls-4{fill:#fff;}.cls-5{fill:#bab9b9;}</style></defs><polygon class="cls-1" points="31.98 10.33 22.56 8.81 16.22 1.69 11.87 10.18 3.14 14.01 9.87 20.77 10.82 30.25 19.32 25.95 28.64 27.98 27.17 18.56 31.98 10.33"/><g class="cls-2"><polygon class="cls-1" points="28.83 10.33 19.42 8.81 13.08 1.69 8.73 10.18 0 14.01 6.72 20.77 7.67 30.25 16.18 25.95 25.49 27.98 24.02 18.56 28.83 10.33"/></g><polygon class="cls-3" points="17.52 24.25 9.01 28.56 8.06 19.07 1.34 12.32 10.07 8.48 14.42 0 20.76 7.12 30.17 8.63 25.36 16.86 26.83 26.28 17.52 24.25"/><polygon class="cls-4" points="14.42 0 16.35 15.14 20.76 7.12 14.42 0"/><polygon class="cls-4" points="16.35 15.14 30.17 8.63 25.36 16.86 16.35 15.14"/><polygon class="cls-5" points="26.83 26.28 16.35 15.14 17.52 24.25 26.83 26.28"/><polygon class="cls-4" points="9.01 28.56 16.35 15.14 17.52 24.25 9.01 28.56"/><polygon class="cls-5" points="8.06 19.07 16.35 15.14 1.34 12.32 8.06 19.07"/><polygon class="cls-5" points="10.07 8.48 16.35 15.14 14.42 0 10.07 8.48"/></svg>
